<?xml version="1.0" encoding="UTF-8"?>
<!DOCTYPE svg PUBLIC "-//W3C//DTD SVG 1.1//EN" "http://www.w3.org/Graphics/SVG/1.1/DTD/svg11.dtd">
<svg version="1.1" xmlns="http://www.w3.org/2000/svg" xmlns:xlink="http://www.w3.org/1999/xlink" x="0" y="0" width="449.991" height="73.238" viewBox="0, 0, 449.991, 73.238">
  <g id="レイヤー_1">
    <path d="M49.176,2.21 L21.239,30.308 C18.874,32.687 18.874,36.558 21.239,38.936 C22.379,40.083 23.893,40.714 25.503,40.714 C27.113,40.714 28.627,40.083 29.767,38.936 L38.897,29.754 C41.257,27.38 44.396,26.073 47.736,26.073 C51.076,26.073 54.216,27.38 56.576,29.754 C61.436,34.642 61.436,42.595 56.576,47.483 L31.349,72.855 C33.071,73.103 34.829,73.238 36.619,73.238 C56.843,73.238 73.238,56.843 73.238,36.619 C73.238,20.806 63.216,7.335 49.176,2.21 M52,42.933 L24.065,71.028 C10.025,65.904 0,52.433 0,36.619 C0,16.395 16.395,-0 36.619,-0 C38.411,-0 40.17,0.134 41.893,0.383 L16.664,25.757 C11.803,30.645 11.803,38.598 16.663,43.486 C19.023,45.86 22.162,47.167 25.503,47.167 C28.843,47.167 31.983,45.86 34.343,43.486 L43.472,34.304 C44.613,33.157 46.127,32.526 47.736,32.526 C49.345,32.526 50.86,33.157 52,34.304 C54.365,36.683 54.365,40.554 52,42.933 M115.378,31.618 C114.824,31.618 101.092,31.616 100.785,31.616 C97.928,31.616 95.611,29.158 95.611,26.295 C95.611,23.428 97.829,20.99 100.694,20.975 L100.694,20.974 L126.559,20.973 L132.083,10.538 L100.721,10.538 C92.076,10.538 85.068,17.546 85.068,26.191 C85.068,34.835 92.074,41.634 100.718,41.636 C100.718,41.636 115.164,41.637 115.289,41.637 C118.148,41.637 120.443,44.094 120.443,46.958 C120.443,49.826 118.116,52.264 115.252,52.278 L115.352,52.28 L89.303,52.28 L83.78,62.715 L115.328,62.715 C123.971,62.714 130.978,55.706 130.978,47.062 C130.978,38.435 123.998,31.618 115.378,31.618 M243.576,10.541 L228.273,31.505 L212.968,10.541 L200.101,10.541 L200.101,62.73 L210.537,62.73 L210.537,24.783 L228.273,48.492 L246.009,24.783 L246.009,62.73 L256.444,62.73 L256.444,10.541 z M369.403,26.906 C369.403,17.866 362.075,10.539 353.035,10.539 L329.243,10.539 L329.277,62.733 L339.552,62.733 L339.552,19.671 L351.741,19.671 C355.738,19.671 358.977,22.911 358.977,26.907 C358.977,30.903 355.738,34.142 351.742,34.143 L343.412,34.143 L358.546,62.733 L369.732,62.733 L358.692,42.279 L358.687,42.271 C364.942,39.969 369.403,33.959 369.403,26.906 M303.254,42.758 C303.186,48.462 298.546,53.067 292.825,53.067 C287.105,53.067 282.466,48.982 282.397,43.278 L282.395,10.541 L271.96,10.541 L271.96,42.758 L271.963,43.278 C272.031,54.744 281.344,63.497 292.825,63.497 C304.307,63.497 313.619,54.744 313.688,43.278 L313.697,43.278 L313.697,10.541 L303.261,10.541 z M158.181,10.541 L138.143,62.73 L149.1,62.73 L163.851,22.951 L178.603,62.73 L189.56,62.73 L169.522,10.541 z M397.73,10.541 L377.692,62.73 L388.65,62.73 L403.401,22.951 L418.153,62.73 L429.11,62.73 L409.072,10.541 z M449.991,62.73 L439.555,62.73 L439.555,10.541 L449.991,10.541 z M449.991,10.541" fill="#E52329"/>
  </g>
</svg>
